<svg id="Layer_1" data-name="Layer 1" xmlns="http://www.w3.org/2000/svg" viewBox="0 0 60 60"><defs><style>.cls-1{fill:#0fb94d;}</style></defs><g id="outline"><path class="cls-1" d="M41.34,53.57H39l-11-11a1.1,1.1,0,0,0-.93-.3,2.14,2.14,0,0,1-2.45-1.78,2.51,2.51,0,0,1,0-.67,1,1,0,0,0-.3-.92L12.23,26.78h2.32l11,11a1.08,1.08,0,0,0,.92.3,1.84,1.84,0,0,1,.33,0,2.13,2.13,0,0,1,2.14,2.15,1.83,1.83,0,0,1,0,.33,1.08,1.08,0,0,0,.3.92ZM27.85,40.18a1.07,1.07,0,1,0-1.07,1.07A1.07,1.07,0,0,0,27.85,40.18Z" transform="translate(0 0)"/><path d="M60,25.71v6.43a1.1,1.1,0,0,1-.31.75l-5,5,0,21A1.07,1.07,0,0,1,53.57,60H1.07A1.07,1.07,0,0,1,0,58.93V54.64a1.07,1.07,0,0,1,1.07-1.07h9.17L22.5,40.33v-.25L9.2,26.78H1.07A1.07,1.07,0,0,1,0,25.71V21.43a1.07,1.07,0,0,1,1.07-1.08h7.5a5.27,5.27,0,0,1-1-2.14H3.21a1.07,1.07,0,0,1-1.07-1.07V15.26A7.77,7.77,0,0,1,9.91,7.5h0L6.79,6.09a1.94,1.94,0,0,0-2.13.4L4,7.18a1.07,1.07,0,0,1-1.52,0,1.06,1.06,0,0,1,0-1.51l.7-.7a4.06,4.06,0,0,1,4.51-.83L15.22,7.5h.35L20.32,2a5.61,5.61,0,0,1,4.27-2H40.21a5.62,5.62,0,0,1,4.88,2.83l2.82,4.93,2.22,1.1A4.3,4.3,0,0,1,52.5,12.7v3.37h2.14a1.08,1.08,0,0,1,1,.59l4.28,8.57A1,1,0,0,1,60,25.71Zm-2.15,6V26L54,18.21H52.5v8.57a4.29,4.29,0,0,1-8.58,0V18.21H42.44L38.57,26V31.7l5,5a1.07,1.07,0,0,1,.31.76V57.85h2.15V38.57a1.07,1.07,0,0,1,1.07-1.07h2.14a1.07,1.07,0,0,1,0,2.14H48.21V57.85H52.5l0-20.36a1.06,1.06,0,0,1,.31-.75Zm-7.5-7.06V22.5H46.07v2.14Zm0-4.29V18.21H46.07v2.14Zm0-4.28V12.7a2.12,2.12,0,0,0-1.18-1.92L46.89,9.64H35.35v6.43h1.18a5.36,5.36,0,0,1,10.5,0Zm0,10.72H46.07a2.15,2.15,0,0,0,2.14,2.14A2.14,2.14,0,0,0,50.35,26.79ZM45.29,7.5,43.23,3.89a3.48,3.48,0,0,0-3-1.75H35.35V7.5Zm-3.51,8.57h3a3.11,3.11,0,0,0-.72-1.16,3.21,3.21,0,0,0-4.62,4.46l1.35-2.71A1.09,1.09,0,0,1,41.78,16.07Zm0,41.78V55.71H2.14v2.14Zm0-6.87v-13l-4.56-4.56L31.06,40a.81.81,0,0,1,0,.16v.09ZM39,53.57h2.33L29.2,41.43a1.08,1.08,0,0,1-.3-.92,1.83,1.83,0,0,0,0-.33A2.13,2.13,0,0,0,26.78,38a1.84,1.84,0,0,0-.33,0,1.08,1.08,0,0,1-.92-.3l-11-11H12.23L24.36,38.92a1,1,0,0,1,.3.92,2.51,2.51,0,0,0,0,.67,2.14,2.14,0,0,0,2.45,1.78,1.1,1.1,0,0,1,.93.3ZM36.83,24.64l1.08-2.14H2.14v2.14ZM17.14,20.35H37.5a5.27,5.27,0,0,1-1-2.14H18.1A5.39,5.39,0,0,1,17.14,20.35ZM36.42,31.08V28.45l-7.45,8a4.25,4.25,0,0,1,1.31,1.22ZM18.52,53.57H36L26.9,44.49a1,1,0,0,1-.13.16ZM26.79,35.7,35,26.79H17.58l9.08,9.08A1,1,0,0,1,26.79,35.7Zm6.42-19.63V9.64H17.14v4.29a5.26,5.26,0,0,1,1,2.14Zm0-8.57V2.14H24.59A3.44,3.44,0,0,0,22,3.36L18.4,7.5ZM15.6,53.57l9-9.71a4.36,4.36,0,0,1-1.31-1.22L13.16,53.57Zm.47-36.43a3.22,3.22,0,1,0-3.22,3.21A3.21,3.21,0,0,0,16.07,17.14ZM15,12.23V9.64H9.91a5.63,5.63,0,0,0-5.63,5.62v.81H7.6A5.89,5.89,0,0,1,7.94,15,5.37,5.37,0,0,1,15,12.23Z" transform="translate(0 0)"/><path class="cls-1" d="M57.85,26V31.7l-5,5a1.06,1.06,0,0,0-.31.75l0,20.36H48.21V39.64h1.07a1.07,1.07,0,0,0,0-2.14H47.14a1.07,1.07,0,0,0-1.07,1.07V57.85H43.92V37.5a1.07,1.07,0,0,0-.31-.76l-5-5V26l3.87-7.75h1.48v8.57a4.29,4.29,0,0,0,8.58,0V18.21H54Z" transform="translate(0 0)"/><path class="cls-1" d="M36.42,28.45v2.63l-6.14,6.63A4.25,4.25,0,0,0,29,36.49Z" transform="translate(0 0)"/><path class="cls-1" d="M26.78,39.1a1.08,1.08,0,1,1-1.07,1.08A1.07,1.07,0,0,1,26.78,39.1Z" transform="translate(0 0)"/><path d="M25.71,10.71a1.07,1.07,0,1,1,0,2.14H23.57a1.07,1.07,0,1,1,0-2.14Z" transform="translate(0 0)"/><path class="cls-1" d="M24.59,43.86l-9,9.71H13.16L23.28,42.64A4.36,4.36,0,0,0,24.59,43.86Z" transform="translate(0 0)"/></g></svg>